<?xml version="1.0" encoding="utf-8"?>
<!-- Generator: Adobe Illustrator 25.0.0, SVG Export Plug-In . SVG Version: 6.00 Build 0)  -->
<svg version="1.1" id="Layer_1" xmlns="http://www.w3.org/2000/svg" xmlns:xlink="http://www.w3.org/1999/xlink" x="0px" y="0px"
	 viewBox="0 0 71.8 71.8" style="enable-background:new 0 0 71.8 71.8;" xml:space="preserve">
<style type="text/css">
	.st0{fill:#c02c29}
</style>
<path class="st0" d="M38,23.4L38,23.4l0.1,0l0.1,0l0,0l0.1,0h0l0.1,0l0,0l0.1,0l0.1,0l0,0l0.1,0h0l0.1,0l0,0l0.1,0l0.1,0l0,0l0.1,0
	l0,0l0.1,0l0,0l0.1,0l0.1,0l0,0l0.1,0h0l0.1,0l0,0l0.1,0l0.1,0l0,0l0.1,0l0.1,0l0,0l0,0l0.1,0l0.1,0l0,0l0.1,0l0,0l0.1,0l0,0l0.1,0
	l0.1,0l0,0l0.1,0l0,0l0.1,0l0,0l0.1,0l0.1,0l0,0l0.2,0.1l0,0l0,0l0.1,0l0.1,0l0,0l0.1,0.1l0,0l0.1,0l0,0l0.1,0l0.1,0l0,0l0.1,0.1
	l0,0l0.1,0l0,0l0.1,0l0.1,0l0,0l0.1,0.1l0,0l0.1,0.1l0,0l0,0l0.1,0.1l0,0l0.1,0.1l0,0l0.1,0.1l0,0l0,0l0.1,0.1l0,0l0.1,0.1l0,0
	l0.1,0.1l0,0l0,0l0.1,0.1l0,0l0.1,0.1l0,0l0.1,0.1l0,0l0,0l0.1,0.1l0,0l0.1,0.1l0,0l0.1,0.1l0,0l0,0l0.1,0.1l0,0l0.1,0.1l0,0
	l0.1,0.1V10.7L38,6.3V23.4L38,23.4z M48.6,33.9h4.6h12.4l-4.4-6.5h-7.9h-4.6V33.9L48.6,33.9z M48.6,23.2h13.6h1.1l0.6,0.9l8,11.8
	l-8,11.8l-0.6,0.9h-1.1H48.6v13.6v1.1l-0.9,0.6l-11.8,8l-11.8-8l-0.9-0.6v-1.1V48.6H9.7H8.6L8,47.7L0,35.9l8-11.8l0.6-0.9h1.1h13.6
	V9.7V8.6L24.1,8l11.8-8l11.8,8l0.9,0.6v1.1V23.2L48.6,23.2z M27.3,23.2h6.5v-4.6V6.3l-6.5,4.4v7.9V23.2L27.3,23.2z M23.2,44.5V38
	h-4.6H6.3l4.4,6.5h7.9H23.2L23.2,44.5z M23.4,33.9L23.4,33.9l0-0.1l0-0.1l0,0l0-0.1v0l0-0.1l0,0l0-0.1l0-0.1l0,0l0-0.1v0l0-0.1l0,0
	l0-0.1l0-0.1l0,0l0-0.1l0,0l0-0.1l0,0l0-0.1l0-0.1l0,0l0-0.1v0l0-0.1l0,0l0-0.1l0-0.1l0,0l0-0.1l0-0.1l0,0l0,0l0-0.1l0-0.1l0,0
	l0-0.1l0,0l0-0.1l0,0l0-0.1l0-0.1l0,0l0-0.1l0,0l0-0.1l0,0l0-0.1l0-0.1l0,0l0.1-0.2l0,0l0,0l0-0.1l0-0.1l0,0l0.1-0.1l0,0l0-0.1l0,0
	l0-0.1l0-0.1l0,0l0.1-0.1l0,0l0-0.1l0,0l0-0.1l0-0.1l0,0l0.1-0.1l0,0l0.1-0.1l0,0l0,0l0.1-0.1l0,0l0.1-0.1l0,0l0.1-0.1l0,0l0,0
	l0.1-0.1l0,0l0.1-0.1l0,0l0.1-0.1l0,0l0,0l0.1-0.1l0,0l0.1-0.1l0,0L26,28l0,0l0,0l0.1-0.1l0,0l0.1-0.1l0,0l0.1-0.1l0,0l0,0l0.1-0.1
	l0,0l0.1-0.1l0,0l0.1-0.1H10.7l-4.4,6.5H23.4L23.4,33.9z M44.5,48.6H38v4.6v12.4l6.5-4.4v-7.9V48.6L44.5,48.6z M33.9,48.4L33.9,48.4
	l-0.1,0l-0.1,0l0,0l-0.1,0h0l-0.1,0l0,0l-0.1,0l-0.1,0l0,0l-0.1,0h0l-0.1,0l0,0l-0.1,0l-0.1,0l0,0l-0.1,0l0,0l-0.1,0l0,0l-0.1,0
	l-0.1,0l0,0l-0.1,0l0,0L32,48l0,0l-0.1,0l-0.1,0l0,0l-0.1,0l-0.1,0l0,0l0,0l-0.1,0l-0.1,0l0,0l-0.1,0l0,0l-0.1,0l0,0l-0.1,0l-0.1,0
	l0,0l-0.1,0l0,0l-0.1,0l0,0l-0.1,0l-0.1,0l0,0l-0.2-0.1l0,0l0,0l-0.1,0l-0.1,0l0,0L30,47.1l0,0l-0.1,0l0,0l-0.1,0l-0.1,0l0,0
	l-0.1-0.1l0,0l-0.1,0l0,0l-0.1,0l-0.1,0l0,0l-0.1-0.1l0,0l-0.1-0.1l0,0l0,0l-0.1-0.1l0,0l-0.1-0.1l0,0l-0.1-0.1l0,0l0,0l-0.1-0.1
	l0,0l-0.1-0.1l0,0l-0.1-0.1l0,0l0,0L28.2,46l0,0l-0.1-0.1l0,0L28,45.8l0,0l0,0l-0.1-0.1l0,0l-0.1-0.1l0,0l-0.1-0.1l0,0l0,0l-0.1-0.1
	l0,0l-0.1-0.1l0,0l-0.1-0.1v15.8l6.5,4.4V48.4L33.9,48.4z M48.4,38L48.4,38l0,0.1l0,0.1l0,0l0,0.1v0l0,0.1l0,0l0,0.1l0,0.1l0,0
	l0,0.1v0l0,0.1l0,0l0,0.1l0,0.1l0,0l0,0.1l0,0l0,0.1l0,0l0,0.1l0,0.1l0,0l0,0.1l0,0l0,0.1l0,0l0,0.1l0,0.1l0,0l0,0.1l0,0.1l0,0l0,0
	l0,0.1l0,0.1l0,0l0,0.1l0,0l0,0.1l0,0l0,0.1l0,0.1l0,0l0,0.1l0,0l0,0.1l0,0l0,0.1l0,0.1l0,0l-0.1,0.2l0,0l0,0l0,0.1l0,0.1l0,0
	l-0.1,0.1l0,0l0,0.1l0,0l0,0.1l0,0.1l0,0l-0.1,0.1l0,0l0,0.1l0,0l0,0.1l0,0.1l0,0l-0.1,0.1l0,0l-0.1,0.1l0,0l0,0l-0.1,0.1l0,0
	L46.4,43l0,0l-0.1,0.1l0,0l0,0l-0.1,0.1l0,0l-0.1,0.1l0,0l-0.1,0.1l0,0l0,0L46,43.6l0,0l-0.1,0.1l0,0l-0.1,0.1l0,0l0,0L45.7,44l0,0
	l-0.1,0.1l0,0l-0.1,0.1l0,0l0,0l-0.1,0.1l0,0l-0.1,0.1l0,0l-0.1,0.1h15.8l4.4-6.5H48.4L48.4,38z M42,29.8c-1.6-1.6-3.7-2.5-6.1-2.5
	h0h0h0h0l0,0h0l0,0h0h0l0,0h0l0,0h0l0,0l0,0l0,0l0,0h0l0,0l0,0l0,0h0l0,0l0,0l0,0h0l0,0l0,0l0,0l0,0l0,0l0,0l0,0l0,0l0,0l0,0l0,0
	l0,0l0,0l0,0l0,0l0,0l0,0l0,0l0,0l0,0l0,0h0l0,0l0,0l0,0l0,0l0,0l0,0l0,0l0,0h0l0,0l0,0l0,0l0,0l0,0l0,0l0,0l0,0l0,0l0,0l0,0l0,0h0
	l0,0l0,0l0,0l0,0l0,0l0,0l0,0l0,0l0,0l0,0l0,0l0,0c-1.6,0.4-2.9,1.2-4,2.3c-1.6,1.6-2.5,3.7-2.5,6.1v0v0v0v0l0,0v0l0,0v0v0l0,0v0
	l0,0v0l0,0l0,0l0,0l0,0v0l0,0l0,0l0,0v0l0,0l0,0l0,0v0l0,0v0l0,0l0,0l0,0l0,0l0,0l0,0v0l0,0l0,0l0,0l0,0l0,0l0,0l0,0l0,0l0,0l0,0
	l0,0l0,0v0l0,0l0,0l0,0l0,0l0,0l0,0l0,0l0,0v0l0,0l0,0l0,0l0,0l0,0l0,0l0,0l0,0v0l0,0l0,0l0,0v0l0,0l0,0l0,0l0,0l0,0l0,0l0,0l0,0
	l0,0l0,0l0,0l0,0c0.4,1.6,1.2,2.9,2.3,4c1.6,1.6,3.7,2.5,6.1,2.5h0h0h0h0h0h0l0,0h0h0l0,0h0l0,0h0l0,0l0,0l0,0l0,0h0l0,0l0,0l0,0h0
	l0,0l0,0l0,0h0l0,0l0,0l0,0l0,0l0,0l0,0l0,0l0,0l0,0l0,0l0,0l0,0l0,0l0,0l0,0l0,0l0,0l0,0l0,0l0,0l0,0h0l0,0l0,0l0,0l0,0l0,0l0,0
	l0,0l0,0h0l0,0l0,0l0,0l0,0l0,0l0,0l0,0l0,0l0,0l0,0l0,0l0,0h0l0,0l0,0l0,0l0,0l0,0l0,0l0,0l0,0l0,0l0,0l0,0l0,0
	c1.5-0.4,2.9-1.2,4-2.3c1.6-1.6,2.5-3.7,2.5-6.1v0v0v0v0l0,0v0l0,0v0v0l0,0v0l0,0v0l0,0l0,0l0,0l0,0v0l0,0l0,0l0,0v0l0,0l0,0l0,0v0
	l0,0l0,0l0,0l0,0l0,0l0,0l0,0l0,0l0,0l0,0l0,0l0,0l0,0l0,0l0,0l0,0l0,0l0,0l0,0l0,0l0,0v0l0,0l0,0l0,0l0,0l0,0l0,0l0,0l0,0v0l0,0
	l0,0l0,0l0,0l0,0l0,0l0,0l0,0l0,0l0,0l0,0l0,0v0l0,0l0,0l0,0l0,0l0,0l0,0l0,0l0,0l0,0l0,0l0,0l0,0l0-0.1l0,0l0,0l0-0.1l0,0l0-0.1
	l0,0l0-0.1l0,0l0,0l0-0.1l0,0l0-0.1l0,0l0,0l0-0.1l0,0l0-0.1l0,0l0,0l0-0.1l0,0l0-0.1l0,0l0-0.1l0,0l0,0l-0.1-0.1l0,0l0,0l0-0.1l0,0
	l0-0.1l0,0l0,0l0-0.1l0,0l0-0.1l0,0l0-0.1l0,0l0,0l0-0.1v0l0-0.1l0,0l0,0l0-0.1l0,0l0-0.1l0-0.1l0,0l0,0l0-0.1l0,0l0-0.1l0,0l0,0
	l0-0.1v0l0-0.1l0,0l0,0l-0.1-0.1l0,0l0,0l0,0l0,0l0,0l0-0.1l0,0l0-0.1l0,0l0,0l0-0.1l0,0l0-0.1l0,0l0,0l0,0l0,0l0-0.1l0,0l0,0l0,0
	l0,0l0-0.1v0l0-0.1l0,0l0,0l0,0l0,0l0-0.1l0,0l0,0l0,0l0,0l0-0.1l0,0l0,0L42,29.8L42,29.8L42,29.8L42,29.8z"/>
</svg>
